<svg xmlns="http://www.w3.org/2000/svg" viewBox="20 20 100 60">
	<style>
		@import url(https://rsms.me/inter/inter.css);

		:root {
			--bg: #eee;
			--fg: #000;
		}

		@media (prefers-color-scheme: dark) {
			:root {
				--bg: #000;
				--fg: #eee;
			}

			/*line { stroke: #e00000 !important; }
			line.invert { stroke: #fed500 !important; }*/
		}

		line {
			stroke: var(--fg);
			stroke-width: 5;
		}

		path { fill: var(--fg); }
	</style>

	<svg x="28.2" y="26.05" width="26.8">
		<path d="M 33.637 47.182 L 0.455 47.182 L 0.455 40.091 L 17.023 24.75 A 86.389 86.389 0 0 0 18.514 23.274 Q 19.241 22.535 19.867 21.858 A 46.148 46.148 0 0 0 20.58 21.068 Q 21.922 19.547 22.664 18.075 A 10.379 10.379 0 0 0 22.773 17.853 A 7.87 7.87 0 0 0 23.523 14.439 A 9.23 9.23 0 0 0 23.523 14.432 A 7.534 7.534 0 0 0 23.318 12.637 A 5.894 5.894 0 0 0 22.591 10.898 Q 21.659 9.409 20.046 8.603 A 7.639 7.639 0 0 0 17.503 7.86 A 9.528 9.528 0 0 0 16.387 7.796 A 8.936 8.936 0 0 0 14.504 7.985 A 6.875 6.875 0 0 0 12.659 8.659 A 5.952 5.952 0 0 0 10.205 11.137 A 7.117 7.117 0 0 0 9.487 13.254 A 9.764 9.764 0 0 0 9.341 14.978 L 0 14.978 Q 0 10.409 2.069 7.046 A 13.799 13.799 0 0 1 7.806 1.87 A 16.441 16.441 0 0 1 7.864 1.841 A 17.636 17.636 0 0 1 13.211 0.223 A 22.875 22.875 0 0 1 16.455 0 A 24.001 24.001 0 0 1 20.723 0.362 A 17.67 17.67 0 0 1 25.171 1.762 A 14.973 14.973 0 0 1 28.83 4.171 A 13.039 13.039 0 0 1 30.955 6.637 A 12.443 12.443 0 0 1 33.008 13.088 A 15.21 15.21 0 0 1 33.023 13.773 A 13.827 13.827 0 0 1 31.989 18.978 A 15.063 15.063 0 0 1 30.988 20.982 Q 29.966 22.718 28.319 24.671 A 52.004 52.004 0 0 1 26.251 26.966 Q 24.034 29.296 20.887 32.159 L 14.091 38.818 L 14.091 39.137 L 33.637 39.137 L 33.637 47.182 Z"/>
	</svg>

	<line id="vert" x1="62.5" x2="62.5" y1="25" y2="75"/>
	<use href="#vert" x="10"/>
	<use href="#vert" x="20"/>
	<use href="#vert" x="30"/>
</svg>